<?xml version="1.0" encoding="UTF-8" standalone="no"?><svg xmlns="http://www.w3.org/2000/svg" xmlns:xlink="http://www.w3.org/1999/xlink" contentStyleType="text/css" height="1620px" preserveAspectRatio="none" style="width:2023px;height:1620px;background:#FFFFFF;" version="1.1" viewBox="0 0 2023 1620" width="2023px" zoomAndPan="magnify"><defs/><g><!--MD5=[3948f51735b92dea4921f04cedb410dd]
class 学生--><g id="elem_学生"><rect codeLine="5" fill="#F1F1F1" height="230.8584" id="学生" rx="2.5" ry="2.5" style="stroke:#181818;stroke-width:0.5;" width="202" x="614" y="334"/><ellipse cx="685" cy="356.0715" fill="#ADD1B2" rx="14" ry="14" style="stroke:#181818;stroke-width:1.0;"/><path d="M679.2813,348.0715 L679.2813,347.4778 L689.8594,347.4778 L690.9219,350.8059 L689.5938,351.3215 Q688.6563,349.5247 687.7813,348.7981 Q686.9063,348.0715 685.8281,348.0715 L683.0938,348.0715 Q683.0938,348.0715 683.1328,348.2668 Q683.1719,348.4622 683.1719,348.8528 L683.1719,354.8997 L685.0469,354.8997 Q686.0156,354.8997 686.4609,354.4153 Q686.9063,353.9309 686.9063,352.9465 L686.9063,352.3684 L688.4844,352.3684 L688.4844,358.1184 L686.9063,358.1184 L686.9063,357.7278 Q686.9063,356.6653 686.4609,356.0793 Q686.0156,355.4934 685.0469,355.4934 L683.2188,355.4934 L683.2188,362.8059 Q683.2188,363.1965 683.4609,363.3918 Q683.7031,363.5872 683.7031,363.5872 L685.625,363.5872 Q687.0938,363.5872 688.1172,362.759 Q689.1406,361.9309 689.8438,359.8528 L691.2188,360.3684 L690.1406,364.1809 L679.1875,364.1809 L679.1875,363.5872 L679.7656,363.5872 Q680.2656,363.5872 680.4609,363.3918 Q680.6563,363.1965 680.6563,362.8059 L680.6563,348.8528 Q680.6563,348.4622 680.4609,348.2668 Q680.2656,348.0715 679.7656,348.0715 L679.2813,348.0715 Z " fill="#000000"/><text fill="#000000" font-family="Yahei" font-size="25" lengthAdjust="spacing" textLength="50" x="710" y="367.6499">学生</text><line style="stroke:#181818;stroke-width:0.5;" x1="615" x2="815" y1="378.1431" y2="378.1431"/><ellipse cx="633" cy="400.7146" fill="#000000" rx="3" ry="3" style="stroke:#000000;stroke-width:1.0;"/><text fill="#000000" font-family="Yahei" font-size="25" lengthAdjust="spacing" textLength="157" x="645" y="410.793">学号: char(12)</text><line style="stroke:#181818;stroke-width:1.0;" x1="615" x2="815" y1="420.2861" y2="420.2861"/><text fill="#000000" font-family="Yahei" font-size="25" lengthAdjust="spacing" textLength="190" x="620" y="452.936">姓名: varchar(50)</text><text fill="#000000" font-family="Yahei" font-size="25" lengthAdjust="spacing" textLength="190" x="620" y="487.0791">班级: varchar(10)</text><text fill="#000000" font-family="Yahei" font-size="25" lengthAdjust="spacing" textLength="190" x="620" y="521.2222">专业: varchar(40)</text><text fill="#000000" font-family="Yahei" font-size="25" lengthAdjust="spacing" textLength="190" x="620" y="555.3652">密码: varchar(30)</text></g><!--MD5=[9475d79277e47c7b73e6f9b26129612f]
class 教师--><g id="elem_教师"><rect codeLine="14" fill="#F1F1F1" height="196.7153" id="教师" rx="2.5" ry="2.5" style="stroke:#181818;stroke-width:0.5;" width="202" x="1508" y="7"/><ellipse cx="1579" cy="29.0715" fill="#ADD1B2" rx="14" ry="14" style="stroke:#181818;stroke-width:1.0;"/><path d="M1573.2813,21.0715 L1573.2813,20.4778 L1583.8594,20.4778 L1584.9219,23.8059 L1583.5938,24.3215 Q1582.6563,22.5247 1581.7813,21.7981 Q1580.9063,21.0715 1579.8281,21.0715 L1577.0938,21.0715 Q1577.0938,21.0715 1577.1328,21.2668 Q1577.1719,21.4622 1577.1719,21.8528 L1577.1719,27.8997 L1579.0469,27.8997 Q1580.0156,27.8997 1580.4609,27.4153 Q1580.9063,26.9309 1580.9063,25.9465 L1580.9063,25.3684 L1582.4844,25.3684 L1582.4844,31.1184 L1580.9063,31.1184 L1580.9063,30.7278 Q1580.9063,29.6653 1580.4609,29.0793 Q1580.0156,28.4934 1579.0469,28.4934 L1577.2188,28.4934 L1577.2188,35.8059 Q1577.2188,36.1965 1577.4609,36.3918 Q1577.7031,36.5872 1577.7031,36.5872 L1579.625,36.5872 Q1581.0938,36.5872 1582.1172,35.759 Q1583.1406,34.9309 1583.8438,32.8528 L1585.2188,33.3684 L1584.1406,37.1809 L1573.1875,37.1809 L1573.1875,36.5872 L1573.7656,36.5872 Q1574.2656,36.5872 1574.4609,36.3918 Q1574.6563,36.1965 1574.6563,35.8059 L1574.6563,21.8528 Q1574.6563,21.4622 1574.4609,21.2668 Q1574.2656,21.0715 1573.7656,21.0715 L1573.2813,21.0715 Z " fill="#000000"/><text fill="#000000" font-family="Yahei" font-size="25" lengthAdjust="spacing" textLength="50" x="1604" y="40.6499">教师</text><line style="stroke:#181818;stroke-width:0.5;" x1="1509" x2="1709" y1="51.1431" y2="51.1431"/><ellipse cx="1527" cy="73.7146" fill="#000000" rx="3" ry="3" style="stroke:#000000;stroke-width:1.0;"/><text fill="#000000" font-family="Yahei" font-size="25" lengthAdjust="spacing" textLength="157" x="1539" y="83.793">工号: char(12)</text><line style="stroke:#181818;stroke-width:1.0;" x1="1509" x2="1709" y1="93.2861" y2="93.2861"/><text fill="#000000" font-family="Yahei" font-size="25" lengthAdjust="spacing" textLength="190" x="1514" y="125.936">姓名: varchar(50)</text><text fill="#000000" font-family="Yahei" font-size="25" lengthAdjust="spacing" textLength="190" x="1514" y="160.0791">邮箱: varchar(30)</text><text fill="#000000" font-family="Yahei" font-size="25" lengthAdjust="spacing" textLength="190" x="1514" y="194.2222">密码: varchar(30)</text></g><!--MD5=[6f627c6d9d410bdd84ac79082e31aad7]
class 课程--><g id="elem_课程"><rect codeLine="22" fill="#F1F1F1" height="128.4292" id="课程" rx="2.5" ry="2.5" style="stroke:#181818;stroke-width:0.5;" width="227" x="870.5" y="41.5"/><ellipse cx="954" cy="63.5715" fill="#ADD1B2" rx="14" ry="14" style="stroke:#181818;stroke-width:1.0;"/><path d="M948.2813,55.5715 L948.2813,54.9778 L958.8594,54.9778 L959.9219,58.3059 L958.5938,58.8215 Q957.6563,57.0247 956.7813,56.2981 Q955.9063,55.5715 954.8281,55.5715 L952.0938,55.5715 Q952.0938,55.5715 952.1328,55.7668 Q952.1719,55.9622 952.1719,56.3528 L952.1719,62.3997 L954.0469,62.3997 Q955.0156,62.3997 955.4609,61.9153 Q955.9063,61.4309 955.9063,60.4465 L955.9063,59.8684 L957.4844,59.8684 L957.4844,65.6184 L955.9063,65.6184 L955.9063,65.2278 Q955.9063,64.1653 955.4609,63.5793 Q955.0156,62.9934 954.0469,62.9934 L952.2188,62.9934 L952.2188,70.3059 Q952.2188,70.6965 952.4609,70.8918 Q952.7031,71.0872 952.7031,71.0872 L954.625,71.0872 Q956.0938,71.0872 957.1172,70.259 Q958.1406,69.4309 958.8438,67.3528 L960.2188,67.8684 L959.1406,71.6809 L948.1875,71.6809 L948.1875,71.0872 L948.7656,71.0872 Q949.2656,71.0872 949.4609,70.8918 Q949.6563,70.6965 949.6563,70.3059 L949.6563,56.3528 Q949.6563,55.9622 949.4609,55.7668 Q949.2656,55.5715 948.7656,55.5715 L948.2813,55.5715 Z " fill="#000000"/><text fill="#000000" font-family="Yahei" font-size="25" lengthAdjust="spacing" textLength="50" x="979" y="75.1499">课程</text><line style="stroke:#181818;stroke-width:0.5;" x1="871.5" x2="1096.5" y1="85.6431" y2="85.6431"/><ellipse cx="889.5" cy="108.2146" fill="#000000" rx="3" ry="3" style="stroke:#000000;stroke-width:1.0;"/><text fill="#000000" font-family="Yahei" font-size="25" lengthAdjust="spacing" textLength="182" x="901.5" y="118.293">课程号: char(12)</text><line style="stroke:#181818;stroke-width:1.0;" x1="871.5" x2="1096.5" y1="127.7861" y2="127.7861"/><text fill="#000000" font-family="Yahei" font-size="25" lengthAdjust="spacing" textLength="215" x="876.5" y="160.436">课程名: varchar(50)</text></g><!--MD5=[0eacdddeb9ed62baac2a83dabd32f394]
class 公告--><g id="elem_公告"><rect codeLine="28" fill="#F1F1F1" height="196.7153" id="公告" rx="2.5" ry="2.5" style="stroke:#181818;stroke-width:0.5;" width="266" x="1750" y="351"/><ellipse cx="1853" cy="373.0715" fill="#ADD1B2" rx="14" ry="14" style="stroke:#181818;stroke-width:1.0;"/><path d="M1847.2813,365.0715 L1847.2813,364.4778 L1857.8594,364.4778 L1858.9219,367.8059 L1857.5938,368.3215 Q1856.6563,366.5247 1855.7813,365.7981 Q1854.9063,365.0715 1853.8281,365.0715 L1851.0938,365.0715 Q1851.0938,365.0715 1851.1328,365.2668 Q1851.1719,365.4622 1851.1719,365.8528 L1851.1719,371.8997 L1853.0469,371.8997 Q1854.0156,371.8997 1854.4609,371.4153 Q1854.9063,370.9309 1854.9063,369.9465 L1854.9063,369.3684 L1856.4844,369.3684 L1856.4844,375.1184 L1854.9063,375.1184 L1854.9063,374.7278 Q1854.9063,373.6653 1854.4609,373.0793 Q1854.0156,372.4934 1853.0469,372.4934 L1851.2188,372.4934 L1851.2188,379.8059 Q1851.2188,380.1965 1851.4609,380.3918 Q1851.7031,380.5872 1851.7031,380.5872 L1853.625,380.5872 Q1855.0938,380.5872 1856.1172,379.759 Q1857.1406,378.9309 1857.8438,376.8528 L1859.2188,377.3684 L1858.1406,381.1809 L1847.1875,381.1809 L1847.1875,380.5872 L1847.7656,380.5872 Q1848.2656,380.5872 1848.4609,380.3918 Q1848.6563,380.1965 1848.6563,379.8059 L1848.6563,365.8528 Q1848.6563,365.4622 1848.4609,365.2668 Q1848.2656,365.0715 1847.7656,365.0715 L1847.2813,365.0715 Z " fill="#000000"/><text fill="#000000" font-family="Yahei" font-size="25" lengthAdjust="spacing" textLength="50" x="1878" y="384.6499">公告</text><line style="stroke:#181818;stroke-width:0.5;" x1="1751" x2="2015" y1="395.1431" y2="395.1431"/><ellipse cx="1782.5" cy="417.7146" fill="#000000" rx="3" ry="3" style="stroke:#000000;stroke-width:1.0;"/><text fill="#000000" font-family="Yahei" font-size="25" lengthAdjust="spacing" textLength="194" x="1794.5" y="427.793">公告号: bigint(20)</text><line style="stroke:#181818;stroke-width:1.0;" x1="1751" x2="2015" y1="437.2861" y2="437.2861"/><text fill="#000000" font-family="Yahei" font-size="25" lengthAdjust="spacing" textLength="157" x="1804.5" y="469.936">工号: char(12)</text><text fill="#000000" font-family="Yahei" font-size="25" lengthAdjust="spacing" textLength="182" x="1792" y="504.0791">课程号: char(12)</text><text fill="#000000" font-family="Yahei" font-size="25" lengthAdjust="spacing" textLength="254" x="1756" y="538.2222">公告内容: varchar(600)</text></g><!--MD5=[580cc52790b7597921785c9469f840bd]
class 问题--><g id="elem_问题"><rect codeLine="36" fill="#F1F1F1" height="299.1445" id="问题" rx="2.5" ry="2.5" style="stroke:#181818;stroke-width:0.5;" width="266" x="851" y="300"/><ellipse cx="954" cy="322.0715" fill="#ADD1B2" rx="14" ry="14" style="stroke:#181818;stroke-width:1.0;"/><path d="M948.2813,314.0715 L948.2813,313.4778 L958.8594,313.4778 L959.9219,316.8059 L958.5938,317.3215 Q957.6563,315.5247 956.7813,314.7981 Q955.9063,314.0715 954.8281,314.0715 L952.0938,314.0715 Q952.0938,314.0715 952.1328,314.2668 Q952.1719,314.4622 952.1719,314.8528 L952.1719,320.8997 L954.0469,320.8997 Q955.0156,320.8997 955.4609,320.4153 Q955.9063,319.9309 955.9063,318.9465 L955.9063,318.3684 L957.4844,318.3684 L957.4844,324.1184 L955.9063,324.1184 L955.9063,323.7278 Q955.9063,322.6653 955.4609,322.0793 Q955.0156,321.4934 954.0469,321.4934 L952.2188,321.4934 L952.2188,328.8059 Q952.2188,329.1965 952.4609,329.3918 Q952.7031,329.5872 952.7031,329.5872 L954.625,329.5872 Q956.0938,329.5872 957.1172,328.759 Q958.1406,327.9309 958.8438,325.8528 L960.2188,326.3684 L959.1406,330.1809 L948.1875,330.1809 L948.1875,329.5872 L948.7656,329.5872 Q949.2656,329.5872 949.4609,329.3918 Q949.6563,329.1965 949.6563,328.8059 L949.6563,314.8528 Q949.6563,314.4622 949.4609,314.2668 Q949.2656,314.0715 948.7656,314.0715 L948.2813,314.0715 Z " fill="#000000"/><text fill="#000000" font-family="Yahei" font-size="25" lengthAdjust="spacing" textLength="50" x="979" y="333.6499">问题</text><line style="stroke:#181818;stroke-width:0.5;" x1="852" x2="1116" y1="344.1431" y2="344.1431"/><ellipse cx="883.5" cy="366.7146" fill="#000000" rx="3" ry="3" style="stroke:#000000;stroke-width:1.0;"/><text fill="#000000" font-family="Yahei" font-size="25" lengthAdjust="spacing" textLength="194" x="895.5" y="376.793">问题号: bigint(20)</text><line style="stroke:#181818;stroke-width:1.0;" x1="852" x2="1116" y1="386.2861" y2="386.2861"/><text fill="#000000" font-family="Yahei" font-size="25" lengthAdjust="spacing" textLength="182" x="893" y="418.936">课程号: char(12)</text><text fill="#000000" font-family="Yahei" font-size="25" lengthAdjust="spacing" textLength="254" x="857" y="453.0791">问题内容: varchar(600)</text><text fill="#000000" font-family="Yahei" font-size="25" lengthAdjust="spacing" textLength="233" x="867.5" y="487.2222">问题时间: timestamp</text><text fill="#000000" font-family="Yahei" font-size="25" lengthAdjust="spacing" textLength="181" x="893.5" y="521.3652">用户ID: char(12)</text><text fill="#000000" font-family="Yahei" font-size="25" lengthAdjust="spacing" textLength="207" x="880.5" y="555.5083">点赞数: smallint(6)</text><text fill="#000000" font-family="Yahei" font-size="25" lengthAdjust="spacing" textLength="210" x="879" y="589.6514">教师点赞: tinyint(1)</text></g><!--MD5=[e807caafad608e38a905744fbfbba136]
class 回答--><g id="elem_回答"><rect codeLine="47" fill="#F1F1F1" height="299.1445" id="回答" rx="2.5" ry="2.5" style="stroke:#181818;stroke-width:0.5;" width="266" x="1333" y="695"/><ellipse cx="1436" cy="717.0715" fill="#ADD1B2" rx="14" ry="14" style="stroke:#181818;stroke-width:1.0;"/><path d="M1430.2813,709.0715 L1430.2813,708.4778 L1440.8594,708.4778 L1441.9219,711.8059 L1440.5938,712.3215 Q1439.6563,710.5247 1438.7813,709.7981 Q1437.9063,709.0715 1436.8281,709.0715 L1434.0938,709.0715 Q1434.0938,709.0715 1434.1328,709.2668 Q1434.1719,709.4622 1434.1719,709.8528 L1434.1719,715.8997 L1436.0469,715.8997 Q1437.0156,715.8997 1437.4609,715.4153 Q1437.9063,714.9309 1437.9063,713.9465 L1437.9063,713.3684 L1439.4844,713.3684 L1439.4844,719.1184 L1437.9063,719.1184 L1437.9063,718.7278 Q1437.9063,717.6653 1437.4609,717.0793 Q1437.0156,716.4934 1436.0469,716.4934 L1434.2188,716.4934 L1434.2188,723.8059 Q1434.2188,724.1965 1434.4609,724.3918 Q1434.7031,724.5872 1434.7031,724.5872 L1436.625,724.5872 Q1438.0938,724.5872 1439.1172,723.759 Q1440.1406,722.9309 1440.8438,720.8528 L1442.2188,721.3684 L1441.1406,725.1809 L1430.1875,725.1809 L1430.1875,724.5872 L1430.7656,724.5872 Q1431.2656,724.5872 1431.4609,724.3918 Q1431.6563,724.1965 1431.6563,723.8059 L1431.6563,709.8528 Q1431.6563,709.4622 1431.4609,709.2668 Q1431.2656,709.0715 1430.7656,709.0715 L1430.2813,709.0715 Z " fill="#000000"/><text fill="#000000" font-family="Yahei" font-size="25" lengthAdjust="spacing" textLength="50" x="1461" y="728.6499">回答</text><line style="stroke:#181818;stroke-width:0.5;" x1="1334" x2="1598" y1="739.1431" y2="739.1431"/><ellipse cx="1365.5" cy="761.7146" fill="#000000" rx="3" ry="3" style="stroke:#000000;stroke-width:1.0;"/><text fill="#000000" font-family="Yahei" font-size="25" lengthAdjust="spacing" textLength="194" x="1377.5" y="771.793">回答号: bigint(20)</text><line style="stroke:#181818;stroke-width:1.0;" x1="1334" x2="1598" y1="781.2861" y2="781.2861"/><text fill="#000000" font-family="Yahei" font-size="25" lengthAdjust="spacing" textLength="194" x="1369" y="813.936">问题号: bigint(20)</text><text fill="#000000" font-family="Yahei" font-size="25" lengthAdjust="spacing" textLength="254" x="1339" y="848.0791">回答内容: varchar(600)</text><text fill="#000000" font-family="Yahei" font-size="25" lengthAdjust="spacing" textLength="233" x="1349.5" y="882.2222">回答时间: timestamp</text><text fill="#000000" font-family="Yahei" font-size="25" lengthAdjust="spacing" textLength="181" x="1375.5" y="916.3652">用户ID: char(12)</text><text fill="#000000" font-family="Yahei" font-size="25" lengthAdjust="spacing" textLength="207" x="1362.5" y="950.5083">点赞数: smallint(6)</text><text fill="#000000" font-family="Yahei" font-size="25" lengthAdjust="spacing" textLength="210" x="1361" y="984.6514">教师点赞: tinyint(1)</text></g><!--MD5=[a6897b7299266cd85454c01565d95c05]
class 二级回答--><g id="elem_二级回答"><rect codeLine="58" fill="#F1F1F1" height="299.1445" id="二级回答" rx="2.5" ry="2.5" style="stroke:#181818;stroke-width:0.5;" width="273" x="1231.5" y="1090"/><ellipse cx="1313" cy="1112.0715" fill="#ADD1B2" rx="14" ry="14" style="stroke:#181818;stroke-width:1.0;"/><path d="M1307.2813,1104.0715 L1307.2813,1103.4778 L1317.8594,1103.4778 L1318.9219,1106.8059 L1317.5938,1107.3215 Q1316.6563,1105.5247 1315.7813,1104.7981 Q1314.9063,1104.0715 1313.8281,1104.0715 L1311.0938,1104.0715 Q1311.0938,1104.0715 1311.1328,1104.2668 Q1311.1719,1104.4622 1311.1719,1104.8528 L1311.1719,1110.8997 L1313.0469,1110.8997 Q1314.0156,1110.8997 1314.4609,1110.4153 Q1314.9063,1109.9309 1314.9063,1108.9465 L1314.9063,1108.3684 L1316.4844,1108.3684 L1316.4844,1114.1184 L1314.9063,1114.1184 L1314.9063,1113.7278 Q1314.9063,1112.6653 1314.4609,1112.0793 Q1314.0156,1111.4934 1313.0469,1111.4934 L1311.2188,1111.4934 L1311.2188,1118.8059 Q1311.2188,1119.1965 1311.4609,1119.3918 Q1311.7031,1119.5872 1311.7031,1119.5872 L1313.625,1119.5872 Q1315.0938,1119.5872 1316.1172,1118.759 Q1317.1406,1117.9309 1317.8438,1115.8528 L1319.2188,1116.3684 L1318.1406,1120.1809 L1307.1875,1120.1809 L1307.1875,1119.5872 L1307.7656,1119.5872 Q1308.2656,1119.5872 1308.4609,1119.3918 Q1308.6563,1119.1965 1308.6563,1118.8059 L1308.6563,1104.8528 Q1308.6563,1104.4622 1308.4609,1104.2668 Q1308.2656,1104.0715 1307.7656,1104.0715 L1307.2813,1104.0715 Z " fill="#000000"/><text fill="#000000" font-family="Yahei" font-size="25" lengthAdjust="spacing" textLength="100" x="1338" y="1123.6499">二级回答</text><line style="stroke:#181818;stroke-width:0.5;" x1="1232.5" x2="1503.5" y1="1134.1431" y2="1134.1431"/><ellipse cx="1242.5" cy="1156.7146" fill="#000000" rx="3" ry="3" style="stroke:#000000;stroke-width:1.0;"/><text fill="#000000" font-family="Yahei" font-size="25" lengthAdjust="spacing" textLength="244" x="1254.5" y="1166.793">二级回答号: bigint(20)</text><line style="stroke:#181818;stroke-width:1.0;" x1="1232.5" x2="1503.5" y1="1176.2861" y2="1176.2861"/><text fill="#000000" font-family="Yahei" font-size="25" lengthAdjust="spacing" textLength="194" x="1271" y="1208.936">回答号: bigint(20)</text><text fill="#000000" font-family="Yahei" font-size="25" lengthAdjust="spacing" textLength="254" x="1241" y="1243.0791">回答内容: varchar(600)</text><text fill="#000000" font-family="Yahei" font-size="25" lengthAdjust="spacing" textLength="233" x="1251.5" y="1277.2222">回答时间: timestamp</text><text fill="#000000" font-family="Yahei" font-size="25" lengthAdjust="spacing" textLength="181" x="1277.5" y="1311.3652">用户ID: char(12)</text><text fill="#000000" font-family="Yahei" font-size="25" lengthAdjust="spacing" textLength="207" x="1264.5" y="1345.5083">点赞数: smallint(6)</text><text fill="#000000" font-family="Yahei" font-size="25" lengthAdjust="spacing" textLength="210" x="1263" y="1379.6514">教师点赞: tinyint(1)</text></g><!--MD5=[8f112c079c4dbba6a078ae973ffefe0c]
class 评价--><g id="elem_评价"><rect codeLine="69" fill="#F1F1F1" height="230.8584" id="评价" rx="2.5" ry="2.5" style="stroke:#181818;stroke-width:0.5;" width="266" x="7" y="729"/><ellipse cx="110" cy="751.0715" fill="#ADD1B2" rx="14" ry="14" style="stroke:#181818;stroke-width:1.0;"/><path d="M104.2813,743.0715 L104.2813,742.4778 L114.8594,742.4778 L115.9219,745.8059 L114.5938,746.3215 Q113.6563,744.5247 112.7813,743.7981 Q111.9063,743.0715 110.8281,743.0715 L108.0938,743.0715 Q108.0938,743.0715 108.1328,743.2668 Q108.1719,743.4622 108.1719,743.8528 L108.1719,749.8997 L110.0469,749.8997 Q111.0156,749.8997 111.4609,749.4153 Q111.9063,748.9309 111.9063,747.9465 L111.9063,747.3684 L113.4844,747.3684 L113.4844,753.1184 L111.9063,753.1184 L111.9063,752.7278 Q111.9063,751.6653 111.4609,751.0793 Q111.0156,750.4934 110.0469,750.4934 L108.2188,750.4934 L108.2188,757.8059 Q108.2188,758.1965 108.4609,758.3918 Q108.7031,758.5872 108.7031,758.5872 L110.625,758.5872 Q112.0938,758.5872 113.1172,757.759 Q114.1406,756.9309 114.8438,754.8528 L116.2188,755.3684 L115.1406,759.1809 L104.1875,759.1809 L104.1875,758.5872 L104.7656,758.5872 Q105.2656,758.5872 105.4609,758.3918 Q105.6563,758.1965 105.6563,757.8059 L105.6563,743.8528 Q105.6563,743.4622 105.4609,743.2668 Q105.2656,743.0715 104.7656,743.0715 L104.2813,743.0715 Z " fill="#000000"/><text fill="#000000" font-family="Yahei" font-size="25" lengthAdjust="spacing" textLength="50" x="135" y="762.6499">评价</text><line style="stroke:#181818;stroke-width:0.5;" x1="8" x2="272" y1="773.1431" y2="773.1431"/><ellipse cx="39.5" cy="795.7146" fill="#000000" rx="3" ry="3" style="stroke:#000000;stroke-width:1.0;"/><text fill="#000000" font-family="Yahei" font-size="25" lengthAdjust="spacing" textLength="194" x="51.5" y="805.793">评价号: bigint(20)</text><line style="stroke:#181818;stroke-width:1.0;" x1="8" x2="272" y1="815.2861" y2="815.2861"/><text fill="#000000" font-family="Yahei" font-size="25" lengthAdjust="spacing" textLength="182" x="49" y="847.936">课程号: char(12)</text><text fill="#000000" font-family="Yahei" font-size="25" lengthAdjust="spacing" textLength="157" x="61.5" y="882.0791">学号: char(12)</text><text fill="#000000" font-family="Yahei" font-size="25" lengthAdjust="spacing" textLength="254" x="13" y="916.2222">评价内容: varchar(600)</text><text fill="#000000" font-family="Yahei" font-size="25" lengthAdjust="spacing" textLength="232" x="24" y="950.3652">评价课次: smallint(6)</text></g><!--MD5=[989e6dcc776ee64c40858210f22bf885]
class 课程时间--><g id="elem_课程时间"><rect codeLine="78" fill="#F1F1F1" height="196.7153" id="课程时间" rx="2.5" ry="2.5" style="stroke:#181818;stroke-width:0.5;" width="223" x="355.5" y="351"/><ellipse cx="412" cy="373.0715" fill="#ADD1B2" rx="14" ry="14" style="stroke:#181818;stroke-width:1.0;"/><path d="M406.2813,365.0715 L406.2813,364.4778 L416.8594,364.4778 L417.9219,367.8059 L416.5938,368.3215 Q415.6563,366.5247 414.7813,365.7981 Q413.9063,365.0715 412.8281,365.0715 L410.0938,365.0715 Q410.0938,365.0715 410.1328,365.2668 Q410.1719,365.4622 410.1719,365.8528 L410.1719,371.8997 L412.0469,371.8997 Q413.0156,371.8997 413.4609,371.4153 Q413.9063,370.9309 413.9063,369.9465 L413.9063,369.3684 L415.4844,369.3684 L415.4844,375.1184 L413.9063,375.1184 L413.9063,374.7278 Q413.9063,373.6653 413.4609,373.0793 Q413.0156,372.4934 412.0469,372.4934 L410.2188,372.4934 L410.2188,379.8059 Q410.2188,380.1965 410.4609,380.3918 Q410.7031,380.5872 410.7031,380.5872 L412.625,380.5872 Q414.0938,380.5872 415.1172,379.759 Q416.1406,378.9309 416.8438,376.8528 L418.2188,377.3684 L417.1406,381.1809 L406.1875,381.1809 L406.1875,380.5872 L406.7656,380.5872 Q407.2656,380.5872 407.4609,380.3918 Q407.6563,380.1965 407.6563,379.8059 L407.6563,365.8528 Q407.6563,365.4622 407.4609,365.2668 Q407.2656,365.0715 406.7656,365.0715 L406.2813,365.0715 Z " fill="#000000"/><text fill="#000000" font-family="Yahei" font-size="25" lengthAdjust="spacing" textLength="100" x="437" y="384.6499">课程时间</text><line style="stroke:#181818;stroke-width:0.5;" x1="356.5" x2="577.5" y1="395.1431" y2="395.1431"/><ellipse cx="366.5" cy="417.7146" fill="#000000" rx="3" ry="3" style="stroke:#000000;stroke-width:1.0;"/><text fill="#000000" font-family="Yahei" font-size="25" lengthAdjust="spacing" textLength="194" x="378.5" y="427.793">记录号: bigint(11)</text><line style="stroke:#181818;stroke-width:1.0;" x1="356.5" x2="577.5" y1="437.2861" y2="437.2861"/><text fill="#000000" font-family="Yahei" font-size="25" lengthAdjust="spacing" textLength="182" x="376" y="469.936">课程号: char(12)</text><text fill="#000000" font-family="Yahei" font-size="25" lengthAdjust="spacing" textLength="182" x="376" y="504.0791">周几: smallint(6)</text><text fill="#000000" font-family="Yahei" font-size="25" lengthAdjust="spacing" textLength="182" x="376" y="538.2222">节次: smallint(6)</text></g><!--MD5=[ab379e9e493fa8e8da7f6ab346fb535e]
class SC--><g id="elem_SC"><rect codeLine="86" fill="#F1F1F1" height="128.4292" id="SC" rx="2.5" ry="2.5" style="stroke:#181818;stroke-width:0.5;" width="211" x="344.5" y="780.5"/><ellipse cx="427.5" cy="802.5715" fill="#ADD1B2" rx="14" ry="14" style="stroke:#181818;stroke-width:1.0;"/><path d="M421.7813,794.5715 L421.7813,793.9778 L432.3594,793.9778 L433.4219,797.3059 L432.0938,797.8215 Q431.1563,796.0247 430.2813,795.2981 Q429.4063,794.5715 428.3281,794.5715 L425.5938,794.5715 Q425.5938,794.5715 425.6328,794.7668 Q425.6719,794.9622 425.6719,795.3528 L425.6719,801.3997 L427.5469,801.3997 Q428.5156,801.3997 428.9609,800.9153 Q429.4063,800.4309 429.4063,799.4465 L429.4063,798.8684 L430.9844,798.8684 L430.9844,804.6184 L429.4063,804.6184 L429.4063,804.2278 Q429.4063,803.1653 428.9609,802.5793 Q428.5156,801.9934 427.5469,801.9934 L425.7188,801.9934 L425.7188,809.3059 Q425.7188,809.6965 425.9609,809.8918 Q426.2031,810.0872 426.2031,810.0872 L428.125,810.0872 Q429.5938,810.0872 430.6172,809.259 Q431.6406,808.4309 432.3438,806.3528 L433.7188,806.8684 L432.6406,810.6809 L421.6875,810.6809 L421.6875,810.0872 L422.2656,810.0872 Q422.7656,810.0872 422.9609,809.8918 Q423.1563,809.6965 423.1563,809.3059 L423.1563,795.3528 Q423.1563,794.9622 422.9609,794.7668 Q422.7656,794.5715 422.2656,794.5715 L421.7813,794.5715 Z " fill="#000000"/><text fill="#000000" font-family="Yahei" font-size="25" lengthAdjust="spacing" textLength="35" x="452.5" y="814.1499">SC</text><line style="stroke:#181818;stroke-width:0.5;" x1="345.5" x2="554.5" y1="824.6431" y2="824.6431"/><line style="stroke:#181818;stroke-width:0.5;" x1="345.5" x2="554.5" y1="832.6431" y2="832.6431"/><ellipse cx="355.5" cy="855.2146" fill="#000000" rx="3" ry="3" style="stroke:#000000;stroke-width:1.0;"/><text fill="#000000" font-family="Yahei" font-size="25" lengthAdjust="spacing" textLength="157" x="367.5" y="865.293">学号: char(12)</text><ellipse cx="355.5" cy="889.3577" fill="#000000" rx="3" ry="3" style="stroke:#000000;stroke-width:1.0;"/><text fill="#000000" font-family="Yahei" font-size="25" lengthAdjust="spacing" textLength="182" x="367.5" y="899.436">课程号: char(12)</text></g><!--MD5=[44183222366df309ff9cda2139cf7164]
class 公告确认--><g id="elem_公告确认"><rect codeLine="91" fill="#F1F1F1" height="128.4292" id="公告确认" rx="2.5" ry="2.5" style="stroke:#181818;stroke-width:0.5;" width="223" x="1074.5" y="780.5"/><ellipse cx="1131" cy="802.5715" fill="#ADD1B2" rx="14" ry="14" style="stroke:#181818;stroke-width:1.0;"/><path d="M1125.2813,794.5715 L1125.2813,793.9778 L1135.8594,793.9778 L1136.9219,797.3059 L1135.5938,797.8215 Q1134.6563,796.0247 1133.7813,795.2981 Q1132.9063,794.5715 1131.8281,794.5715 L1129.0938,794.5715 Q1129.0938,794.5715 1129.1328,794.7668 Q1129.1719,794.9622 1129.1719,795.3528 L1129.1719,801.3997 L1131.0469,801.3997 Q1132.0156,801.3997 1132.4609,800.9153 Q1132.9063,800.4309 1132.9063,799.4465 L1132.9063,798.8684 L1134.4844,798.8684 L1134.4844,804.6184 L1132.9063,804.6184 L1132.9063,804.2278 Q1132.9063,803.1653 1132.4609,802.5793 Q1132.0156,801.9934 1131.0469,801.9934 L1129.2188,801.9934 L1129.2188,809.3059 Q1129.2188,809.6965 1129.4609,809.8918 Q1129.7031,810.0872 1129.7031,810.0872 L1131.625,810.0872 Q1133.0938,810.0872 1134.1172,809.259 Q1135.1406,808.4309 1135.8438,806.3528 L1137.2188,806.8684 L1136.1406,810.6809 L1125.1875,810.6809 L1125.1875,810.0872 L1125.7656,810.0872 Q1126.2656,810.0872 1126.4609,809.8918 Q1126.6563,809.6965 1126.6563,809.3059 L1126.6563,795.3528 Q1126.6563,794.9622 1126.4609,794.7668 Q1126.2656,794.5715 1125.7656,794.5715 L1125.2813,794.5715 Z " fill="#000000"/><text fill="#000000" font-family="Yahei" font-size="25" lengthAdjust="spacing" textLength="100" x="1156" y="814.1499">公告确认</text><line style="stroke:#181818;stroke-width:0.5;" x1="1075.5" x2="1296.5" y1="824.6431" y2="824.6431"/><line style="stroke:#181818;stroke-width:0.5;" x1="1075.5" x2="1296.5" y1="832.6431" y2="832.6431"/><ellipse cx="1085.5" cy="855.2146" fill="#000000" rx="3" ry="3" style="stroke:#000000;stroke-width:1.0;"/><text fill="#000000" font-family="Yahei" font-size="25" lengthAdjust="spacing" textLength="157" x="1097.5" y="865.293">学号: char(12)</text><ellipse cx="1085.5" cy="889.3577" fill="#000000" rx="3" ry="3" style="stroke:#000000;stroke-width:1.0;"/><text fill="#000000" font-family="Yahei" font-size="25" lengthAdjust="spacing" textLength="194" x="1097.5" y="899.436">公告号: bigint(20)</text></g><!--MD5=[93682ce5ce33057f22a71f1f2afda6eb]
class 公告草稿--><g id="elem_公告草稿"><rect codeLine="96" fill="#F1F1F1" height="162.5723" id="公告草稿" rx="2.5" ry="2.5" style="stroke:#181818;stroke-width:0.5;" width="316" x="1152" y="368"/><ellipse cx="1255" cy="390.0715" fill="#ADD1B2" rx="14" ry="14" style="stroke:#181818;stroke-width:1.0;"/><path d="M1249.2813,382.0715 L1249.2813,381.4778 L1259.8594,381.4778 L1260.9219,384.8059 L1259.5938,385.3215 Q1258.6563,383.5247 1257.7813,382.7981 Q1256.9063,382.0715 1255.8281,382.0715 L1253.0938,382.0715 Q1253.0938,382.0715 1253.1328,382.2668 Q1253.1719,382.4622 1253.1719,382.8528 L1253.1719,388.8997 L1255.0469,388.8997 Q1256.0156,388.8997 1256.4609,388.4153 Q1256.9063,387.9309 1256.9063,386.9465 L1256.9063,386.3684 L1258.4844,386.3684 L1258.4844,392.1184 L1256.9063,392.1184 L1256.9063,391.7278 Q1256.9063,390.6653 1256.4609,390.0793 Q1256.0156,389.4934 1255.0469,389.4934 L1253.2188,389.4934 L1253.2188,396.8059 Q1253.2188,397.1965 1253.4609,397.3918 Q1253.7031,397.5872 1253.7031,397.5872 L1255.625,397.5872 Q1257.0938,397.5872 1258.1172,396.759 Q1259.1406,395.9309 1259.8438,393.8528 L1261.2188,394.3684 L1260.1406,398.1809 L1249.1875,398.1809 L1249.1875,397.5872 L1249.7656,397.5872 Q1250.2656,397.5872 1250.4609,397.3918 Q1250.6563,397.1965 1250.6563,396.8059 L1250.6563,382.8528 Q1250.6563,382.4622 1250.4609,382.2668 Q1250.2656,382.0715 1249.7656,382.0715 L1249.2813,382.0715 Z " fill="#000000"/><text fill="#000000" font-family="Yahei" font-size="25" lengthAdjust="spacing" textLength="100" x="1280" y="401.6499">公告草稿</text><line style="stroke:#181818;stroke-width:0.5;" x1="1153" x2="1467" y1="412.1431" y2="412.1431"/><ellipse cx="1215.5" cy="434.7146" fill="#000000" rx="3" ry="3" style="stroke:#000000;stroke-width:1.0;"/><text fill="#000000" font-family="Yahei" font-size="25" lengthAdjust="spacing" textLength="182" x="1227.5" y="444.793">课程号: char(12)</text><ellipse cx="1215.5" cy="468.8577" fill="#000000" rx="3" ry="3" style="stroke:#000000;stroke-width:1.0;"/><text fill="#000000" font-family="Yahei" font-size="25" lengthAdjust="spacing" textLength="157" x="1227.5" y="478.936">工号: char(12)</text><line style="stroke:#181818;stroke-width:1.0;" x1="1153" x2="1467" y1="488.4292" y2="488.4292"/><text fill="#000000" font-family="Yahei" font-size="25" lengthAdjust="spacing" textLength="304" x="1158" y="521.0791">公告草稿内容: varchar(255)</text></g><!--MD5=[97edbdf1502aa91048d3c35b350fa0d6]
class 开课情况--><g id="elem_开课情况"><rect codeLine="103" fill="#F1F1F1" height="128.4292" id="开课情况" rx="2.5" ry="2.5" style="stroke:#181818;stroke-width:0.5;" width="211" x="1503.5" y="385.5"/><ellipse cx="1554.35" cy="407.5715" fill="#ADD1B2" rx="14" ry="14" style="stroke:#181818;stroke-width:1.0;"/><path d="M1548.6313,399.5715 L1548.6313,398.9778 L1559.2094,398.9778 L1560.2719,402.3059 L1558.9438,402.8215 Q1558.0063,401.0247 1557.1313,400.2981 Q1556.2563,399.5715 1555.1781,399.5715 L1552.4438,399.5715 Q1552.4438,399.5715 1552.4828,399.7668 Q1552.5219,399.9622 1552.5219,400.3528 L1552.5219,406.3997 L1554.3969,406.3997 Q1555.3656,406.3997 1555.8109,405.9153 Q1556.2563,405.4309 1556.2563,404.4465 L1556.2563,403.8684 L1557.8344,403.8684 L1557.8344,409.6184 L1556.2563,409.6184 L1556.2563,409.2278 Q1556.2563,408.1653 1555.8109,407.5793 Q1555.3656,406.9934 1554.3969,406.9934 L1552.5688,406.9934 L1552.5688,414.3059 Q1552.5688,414.6965 1552.8109,414.8918 Q1553.0531,415.0872 1553.0531,415.0872 L1554.975,415.0872 Q1556.4438,415.0872 1557.4672,414.259 Q1558.4906,413.4309 1559.1938,411.3528 L1560.5688,411.8684 L1559.4906,415.6809 L1548.5375,415.6809 L1548.5375,415.0872 L1549.1156,415.0872 Q1549.6156,415.0872 1549.8109,414.8918 Q1550.0063,414.6965 1550.0063,414.3059 L1550.0063,400.3528 Q1550.0063,399.9622 1549.8109,399.7668 Q1549.6156,399.5715 1549.1156,399.5715 L1548.6313,399.5715 Z " fill="#000000"/><text fill="#000000" font-family="Yahei" font-size="25" lengthAdjust="spacing" textLength="100" x="1578.65" y="419.1499">开课情况</text><line style="stroke:#181818;stroke-width:0.5;" x1="1504.5" x2="1713.5" y1="429.6431" y2="429.6431"/><line style="stroke:#181818;stroke-width:0.5;" x1="1504.5" x2="1713.5" y1="437.6431" y2="437.6431"/><ellipse cx="1514.5" cy="460.2146" fill="#000000" rx="3" ry="3" style="stroke:#000000;stroke-width:1.0;"/><text fill="#000000" font-family="Yahei" font-size="25" lengthAdjust="spacing" textLength="157" x="1526.5" y="470.293">工号: char(12)</text><ellipse cx="1514.5" cy="494.3577" fill="#000000" rx="3" ry="3" style="stroke:#000000;stroke-width:1.0;"/><text fill="#000000" font-family="Yahei" font-size="25" lengthAdjust="spacing" textLength="182" x="1526.5" y="504.436">课程号: char(12)</text></g><!--MD5=[52ce64d23167638c4ea1858aba9e3dd2]
class 回答点赞记录--><g id="elem_回答点赞记录"><rect codeLine="108" fill="#F1F1F1" height="128.4292" id="回答点赞记录" rx="2.5" ry="2.5" style="stroke:#181818;stroke-width:0.5;" width="223" x="875.5" y="1175.5"/><ellipse cx="909.25" cy="1197.5715" fill="#ADD1B2" rx="14" ry="14" style="stroke:#181818;stroke-width:1.0;"/><path d="M903.5313,1189.5715 L903.5313,1188.9778 L914.1094,1188.9778 L915.1719,1192.3059 L913.8438,1192.8215 Q912.9063,1191.0247 912.0313,1190.2981 Q911.1563,1189.5715 910.0781,1189.5715 L907.3438,1189.5715 Q907.3438,1189.5715 907.3828,1189.7668 Q907.4219,1189.9622 907.4219,1190.3528 L907.4219,1196.3997 L909.2969,1196.3997 Q910.2656,1196.3997 910.7109,1195.9153 Q911.1563,1195.4309 911.1563,1194.4465 L911.1563,1193.8684 L912.7344,1193.8684 L912.7344,1199.6184 L911.1563,1199.6184 L911.1563,1199.2278 Q911.1563,1198.1653 910.7109,1197.5793 Q910.2656,1196.9934 909.2969,1196.9934 L907.4688,1196.9934 L907.4688,1204.3059 Q907.4688,1204.6965 907.7109,1204.8918 Q907.9531,1205.0872 907.9531,1205.0872 L909.875,1205.0872 Q911.3438,1205.0872 912.3672,1204.259 Q913.3906,1203.4309 914.0938,1201.3528 L915.4688,1201.8684 L914.3906,1205.6809 L903.4375,1205.6809 L903.4375,1205.0872 L904.0156,1205.0872 Q904.5156,1205.0872 904.7109,1204.8918 Q904.9063,1204.6965 904.9063,1204.3059 L904.9063,1190.3528 Q904.9063,1189.9622 904.7109,1189.7668 Q904.5156,1189.5715 904.0156,1189.5715 L903.5313,1189.5715 Z " fill="#000000"/><text fill="#000000" font-family="Yahei" font-size="25" lengthAdjust="spacing" textLength="150" x="929.75" y="1209.1499">回答点赞记录</text><line style="stroke:#181818;stroke-width:0.5;" x1="876.5" x2="1097.5" y1="1219.6431" y2="1219.6431"/><line style="stroke:#181818;stroke-width:0.5;" x1="876.5" x2="1097.5" y1="1227.6431" y2="1227.6431"/><ellipse cx="886.5" cy="1250.2146" fill="#000000" rx="3" ry="3" style="stroke:#000000;stroke-width:1.0;"/><text fill="#000000" font-family="Yahei" font-size="25" lengthAdjust="spacing" textLength="157" x="898.5" y="1260.293">学号: char(12)</text><ellipse cx="886.5" cy="1284.3577" fill="#000000" rx="3" ry="3" style="stroke:#000000;stroke-width:1.0;"/><text fill="#000000" font-family="Yahei" font-size="25" lengthAdjust="spacing" textLength="194" x="898.5" y="1294.436">回答号: bigint(20)</text></g><!--MD5=[7475c9e12bab27f8dbbc9f094d5c42c7]
class 二级回答点赞记录--><g id="elem_二级回答点赞记录"><rect codeLine="113" fill="#F1F1F1" height="128.4292" id="二级回答点赞记录" rx="2.5" ry="2.5" style="stroke:#181818;stroke-width:0.5;" width="238" x="537" y="1485"/><ellipse cx="555" cy="1507.0715" fill="#ADD1B2" rx="14" ry="14" style="stroke:#181818;stroke-width:1.0;"/><path d="M549.2813,1499.0715 L549.2813,1498.4778 L559.8594,1498.4778 L560.9219,1501.8059 L559.5938,1502.3215 Q558.6563,1500.5247 557.7813,1499.7981 Q556.9063,1499.0715 555.8281,1499.0715 L553.0938,1499.0715 Q553.0938,1499.0715 553.1328,1499.2668 Q553.1719,1499.4622 553.1719,1499.8528 L553.1719,1505.8997 L555.0469,1505.8997 Q556.0156,1505.8997 556.4609,1505.4153 Q556.9063,1504.9309 556.9063,1503.9465 L556.9063,1503.3684 L558.4844,1503.3684 L558.4844,1509.1184 L556.9063,1509.1184 L556.9063,1508.7278 Q556.9063,1507.6653 556.4609,1507.0793 Q556.0156,1506.4934 555.0469,1506.4934 L553.2188,1506.4934 L553.2188,1513.8059 Q553.2188,1514.1965 553.4609,1514.3918 Q553.7031,1514.5872 553.7031,1514.5872 L555.625,1514.5872 Q557.0938,1514.5872 558.1172,1513.759 Q559.1406,1512.9309 559.8438,1510.8528 L561.2188,1511.3684 L560.1406,1515.1809 L549.1875,1515.1809 L549.1875,1514.5872 L549.7656,1514.5872 Q550.2656,1514.5872 550.4609,1514.3918 Q550.6563,1514.1965 550.6563,1513.8059 L550.6563,1499.8528 Q550.6563,1499.4622 550.4609,1499.2668 Q550.2656,1499.0715 549.7656,1499.0715 L549.2813,1499.0715 Z " fill="#000000"/><text fill="#000000" font-family="Yahei" font-size="25" lengthAdjust="spacing" textLength="200" x="572" y="1518.6499">二级回答点赞记录</text><line style="stroke:#181818;stroke-width:0.5;" x1="538" x2="774" y1="1529.1431" y2="1529.1431"/><line style="stroke:#181818;stroke-width:0.5;" x1="538" x2="774" y1="1537.1431" y2="1537.1431"/><ellipse cx="548" cy="1559.7146" fill="#000000" rx="3" ry="3" style="stroke:#000000;stroke-width:1.0;"/><text fill="#000000" font-family="Yahei" font-size="25" lengthAdjust="spacing" textLength="157" x="560" y="1569.793">学号: char(12)</text><ellipse cx="548" cy="1593.8577" fill="#000000" rx="3" ry="3" style="stroke:#000000;stroke-width:1.0;"/><text fill="#000000" font-family="Yahei" font-size="25" lengthAdjust="spacing" textLength="194" x="560" y="1603.936">回答号: bigint(20)</text></g><!--MD5=[05470795c66b565a307f5b778f998f4f]
class 问题点赞记录--><g id="elem_问题点赞记录"><rect codeLine="118" fill="#F1F1F1" height="128.4292" id="问题点赞记录" rx="2.5" ry="2.5" style="stroke:#181818;stroke-width:0.5;" width="237" x="802.5" y="780.5"/><ellipse cx="842.55" cy="802.5715" fill="#ADD1B2" rx="14" ry="14" style="stroke:#181818;stroke-width:1.0;"/><path d="M836.8313,794.5715 L836.8313,793.9778 L847.4094,793.9778 L848.4719,797.3059 L847.1438,797.8215 Q846.2063,796.0247 845.3313,795.2981 Q844.4563,794.5715 843.3781,794.5715 L840.6438,794.5715 Q840.6438,794.5715 840.6828,794.7668 Q840.7219,794.9622 840.7219,795.3528 L840.7219,801.3997 L842.5969,801.3997 Q843.5656,801.3997 844.0109,800.9153 Q844.4563,800.4309 844.4563,799.4465 L844.4563,798.8684 L846.0344,798.8684 L846.0344,804.6184 L844.4563,804.6184 L844.4563,804.2278 Q844.4563,803.1653 844.0109,802.5793 Q843.5656,801.9934 842.5969,801.9934 L840.7688,801.9934 L840.7688,809.3059 Q840.7688,809.6965 841.0109,809.8918 Q841.2531,810.0872 841.2531,810.0872 L843.175,810.0872 Q844.6438,810.0872 845.6672,809.259 Q846.6906,808.4309 847.3938,806.3528 L848.7688,806.8684 L847.6906,810.6809 L836.7375,810.6809 L836.7375,810.0872 L837.3156,810.0872 Q837.8156,810.0872 838.0109,809.8918 Q838.2063,809.6965 838.2063,809.3059 L838.2063,795.3528 Q838.2063,794.9622 838.0109,794.7668 Q837.8156,794.5715 837.3156,794.5715 L836.8313,794.5715 Z " fill="#000000"/><text fill="#000000" font-family="Yahei" font-size="25" lengthAdjust="spacing" textLength="150" x="864.45" y="814.1499">问题点赞记录</text><line style="stroke:#181818;stroke-width:0.5;" x1="803.5" x2="1038.5" y1="824.6431" y2="824.6431"/><line style="stroke:#181818;stroke-width:0.5;" x1="803.5" x2="1038.5" y1="832.6431" y2="832.6431"/><ellipse cx="813.5" cy="855.2146" fill="#000000" rx="3" ry="3" style="stroke:#000000;stroke-width:1.0;"/><text fill="#000000" font-family="Yahei" font-size="25" lengthAdjust="spacing" textLength="157" x="825.5" y="865.293">学号: char(12)</text><ellipse cx="813.5" cy="889.3577" fill="#000000" rx="3" ry="3" style="stroke:#000000;stroke-width:1.0;"/><text fill="#000000" font-family="Yahei" font-size="25" lengthAdjust="spacing" textLength="208" x="825.5" y="899.436">问题号: bigint(255)</text></g><!--MD5=[00fc194a9aaca03c3db008c0df228734]
link 学生 to SC--><g id="link_学生_SC"><path codeLine="122" d="M624.05,571.21 C614.98,581 605.57,590.41 596,599 C577.56,615.56 565.29,610.33 549,629 C512.67,670.63 487.16,727.84 471.15,772.71 " fill="none" id="学生-SC" style="stroke:#181818;stroke-width:1.0;"/><line style="stroke:#181818;stroke-width:1.0;" x1="473.5577" x2="466.0077" y1="777.9077" y2="775.2623"/><line style="stroke:#181818;stroke-width:1.0;" x1="474.5497" x2="466.9997" y1="775.0764" y2="772.4311"/><line style="stroke:#181818;stroke-width:1.0;" x1="471.1054" x2="468.46" y1="772.81" y2="780.36"/><line style="stroke:#181818;stroke-width:1.0;" x1="624.2587" x2="625.234" y1="570.9814" y2="561.0291"/><line style="stroke:#181818;stroke-width:1.0;" x1="624.2587" x2="634.086" y1="570.9814" y2="569.1309"/><line style="stroke:#181818;stroke-width:1.0;" x1="624.2587" x2="629.66" y1="570.9814" y2="565.08"/><line style="stroke:#181818;stroke-width:1.0;" x1="619.9577" x2="625.8591" y1="569.7561" y2="575.1574"/><text fill="#000000" font-family="Yahei" font-size="25" lengthAdjust="spacing" textLength="50" x="550" y="658.6499">选课</text></g><!--MD5=[7b275acdffb16891287d8216d78cfa10]
link 课程 to SC--><g id="link_课程_SC"><path codeLine="123" d="M862.44,122.48 C681.63,149.03 355.57,208.52 286,300 C205.56,405.78 247.31,471.87 286,599 C305.83,664.15 349.44,727.71 386.7,773.69 " fill="none" id="课程-SC" style="stroke:#181818;stroke-width:1.0;"/><line style="stroke:#181818;stroke-width:1.0;" x1="392.4914" x2="386.2921" y1="774.4321" y2="779.4886"/><line style="stroke:#181818;stroke-width:1.0;" x1="390.5952" x2="384.3959" y1="772.1073" y2="777.1639"/><line style="stroke:#181818;stroke-width:1.0;" x1="386.8634" x2="391.92" y1="773.8607" y2="780.06"/><line style="stroke:#181818;stroke-width:1.0;" x1="862.4939" x2="869.5435" y1="122.4753" y2="115.3829"/><line style="stroke:#181818;stroke-width:1.0;" x1="862.4939" x2="871.2765" y1="122.4753" y2="127.2571"/><line style="stroke:#181818;stroke-width:1.0;" x1="862.4939" x2="870.41" y1="122.4753" y2="121.32"/><line style="stroke:#181818;stroke-width:1.0;" x1="859.9372" x2="861.0925" y1="118.8061" y2="126.7222"/><text fill="#000000" font-family="Yahei" font-size="25" lengthAdjust="spacing" textLength="50" x="287" y="461.1499">被选</text></g><!--MD5=[48fc2b55d0a7fd190a15673c6469d266]
link 学生 to 评价--><g id="link_学生_评价"><path codeLine="124" d="M630.89,571.25 C620.07,581.69 608.4,591.22 596,599 C545.4,630.74 521.4,609.33 465,629 C400.81,651.39 384.65,658.97 327,695 C311.31,704.81 295.41,715.7 279.85,727.02 " fill="none" id="学生-评价" style="stroke:#181818;stroke-width:1.0;"/><line style="stroke:#181818;stroke-width:1.0;" x1="278.7905" x2="274.0639" y1="732.7539" y2="726.2995"/><line style="stroke:#181818;stroke-width:1.0;" x1="281.2109" x2="276.4843" y1="730.9815" y2="724.527"/><line style="stroke:#181818;stroke-width:1.0;" x1="279.6544" x2="273.2" y1="727.1634" y2="731.89"/><line style="stroke:#181818;stroke-width:1.0;" x1="631.1489" x2="632.5881" y1="570.9926" y2="561.0967"/><line style="stroke:#181818;stroke-width:1.0;" x1="631.1489" x2="641.0519" y1="570.9926" y2="569.6033"/><line style="stroke:#181818;stroke-width:1.0;" x1="631.1489" x2="636.82" y1="570.9926" y2="565.35"/><line style="stroke:#181818;stroke-width:1.0;" x1="626.9098" x2="632.5524" y1="569.5676" y2="575.2387"/><text fill="#000000" font-family="Yahei" font-size="25" lengthAdjust="spacing" textLength="50" x="466" y="658.6499">发表</text></g><!--MD5=[60a5d1ed7d0bf2b0859dee1cd266855a]
link 课程 to 评价--><g id="link_课程_评价"><path codeLine="125" d="M862.1,115.52 C651.75,134.04 235.45,184.71 156,300 C71.04,423.28 85.22,602.43 108.3,720.89 " fill="none" id="课程-评价" style="stroke:#181818;stroke-width:1.0;"/><line style="stroke:#181818;stroke-width:1.0;" x1="113.0461" x2="105.1987" y1="724.2587" y2="725.8139"/><line style="stroke:#181818;stroke-width:1.0;" x1="112.4629" x2="104.6155" y1="721.3159" y2="722.8711"/><line style="stroke:#181818;stroke-width:1.0;" x1="108.3448" x2="109.9" y1="721.1126" y2="728.96"/><line style="stroke:#181818;stroke-width:1.0;" x1="862.1394" x2="869.5958" y1="115.5056" y2="108.8421"/><line style="stroke:#181818;stroke-width:1.0;" x1="862.1394" x2="870.6242" y1="115.5056" y2="120.7979"/><line style="stroke:#181818;stroke-width:1.0;" x1="862.1394" x2="870.11" y1="115.5056" y2="114.82"/><line style="stroke:#181818;stroke-width:1.0;" x1="859.804" x2="860.4896" y1="111.6918" y2="119.6623"/><text fill="#000000" font-family="Yahei" font-size="25" lengthAdjust="spacing" textLength="75" x="157" y="461.1499">被评价</text></g><!--MD5=[4eb9f05e281d19b62e288e0e7bf845b8]
link 课程 to 公告--><g id="link_课程_公告"><path codeLine="126" d="M1105.85,131.33 C1206.22,153.41 1351.44,189.12 1474,234 C1508.72,246.71 1513.73,258.9 1549,270 C1627.61,294.75 1658.51,262.69 1732,300 C1754.73,311.54 1776.22,327.72 1795.48,345.18 " fill="none" id="课程-公告" style="stroke:#181818;stroke-width:1.0;"/><line style="stroke:#181818;stroke-width:1.0;" x1="1801.1685" x2="1795.7375" y1="344.9875" y2="350.8615"/><line style="stroke:#181818;stroke-width:1.0;" x1="1798.9657" x2="1793.5347" y1="342.9509" y2="348.8249"/><line style="stroke:#181818;stroke-width:1.0;" x1="1795.516" x2="1801.39" y1="345.209" y2="350.64"/><line style="stroke:#181818;stroke-width:1.0;" x1="1105.6042" x2="1096.5043" y1="131.2843" y2="135.4306"/><line style="stroke:#181818;stroke-width:1.0;" x1="1105.6042" x2="1099.0757" y1="131.2843" y2="123.7094"/><line style="stroke:#181818;stroke-width:1.0;" x1="1105.6042" x2="1097.79" y1="131.2843" y2="129.57"/><line style="stroke:#181818;stroke-width:1.0;" x1="1106.7006" x2="1108.4148" y1="135.6199" y2="127.8057"/><text fill="#000000" font-family="Yahei" font-size="25" lengthAdjust="spacing" textLength="50" x="1550" y="263.6499">包含</text></g><!--MD5=[eb1b7fc2ed7747365189878838f34be1]
link 教师 to 公告--><g id="link_教师_公告"><path codeLine="127" d="M1692.16,210.3 C1726.19,252.77 1765.48,301.82 1799.54,344.33 " fill="none" id="教师-公告" style="stroke:#181818;stroke-width:1.0;"/><line style="stroke:#181818;stroke-width:1.0;" x1="1805.3716" x2="1799.1274" y1="345.1974" y2="350.1984"/><line style="stroke:#181818;stroke-width:1.0;" x1="1803.4962" x2="1797.252" y1="342.8558" y2="347.8569"/><line style="stroke:#181818;stroke-width:1.0;" x1="1799.749" x2="1804.75" y1="344.5758" y2="350.82"/><line style="stroke:#181818;stroke-width:1.0;" x1="1692.151" x2="1682.4669" y1="210.2942" y2="207.8008"/><line style="stroke:#181818;stroke-width:1.0;" x1="1692.151" x2="1691.8331" y1="210.2942" y2="200.2992"/><line style="stroke:#181818;stroke-width:1.0;" x1="1692.151" x2="1687.15" y1="210.2942" y2="204.05"/><line style="stroke:#181818;stroke-width:1.0;" x1="1690.2792" x2="1696.5234" y1="214.3557" y2="209.3547"/><text fill="#000000" font-family="Yahei" font-size="25" lengthAdjust="spacing" textLength="50" x="1738" y="263.6499">发布</text></g><!--MD5=[148427d85ee34396d269dcc6a8adf30d]
link 学生 to 公告确认--><g id="link_学生_公告确认"><path codeLine="128" d="M796.93,570.8 C808.3,581.64 820.7,591.38 834,599 C913.9,644.78 960.87,580.27 1039,629 C1093.02,662.69 1132.13,724.35 1156.36,772.94 " fill="none" id="学生-公告确认" style="stroke:#181818;stroke-width:1.0;"/><line style="stroke:#181818;stroke-width:1.0;" x1="1161.8159" x2="1154.6294" y1="774.9594" y2="778.4741"/><line style="stroke:#181818;stroke-width:1.0;" x1="1160.4979" x2="1153.3113" y1="772.2644" y2="775.7791"/><line style="stroke:#181818;stroke-width:1.0;" x1="1156.4653" x2="1159.98" y1="773.1234" y2="780.31"/><line style="stroke:#181818;stroke-width:1.0;" x1="796.7867" x2="786.8751" y1="570.6466" y2="569.32"/><line style="stroke:#181818;stroke-width:1.0;" x1="796.7867" x2="795.2849" y1="570.6466" y2="560.76"/><line style="stroke:#181818;stroke-width:1.0;" x1="796.7867" x2="791.08" y1="570.6466" y2="565.04"/><line style="stroke:#181818;stroke-width:1.0;" x1="795.4101" x2="801.0167" y1="574.9016" y2="569.1949"/><text fill="#000000" font-family="Yahei" font-size="25" lengthAdjust="spacing" textLength="50" x="1083" y="658.6499">确认</text></g><!--MD5=[ba9676eb69b1ad7fe30b46782f0dbec9]
link 公告 to 公告确认--><g id="link_公告_公告确认"><path codeLine="129" d="M1793.25,554.14 C1774.47,571.15 1753.72,587.08 1732,599 C1565.66,690.29 1478.82,597.56 1316,695 C1283.2,714.63 1254.3,745.35 1232.13,773.77 " fill="none" id="公告-公告确认" style="stroke:#181818;stroke-width:1.0;"/><line style="stroke:#181818;stroke-width:1.0;" x1="1232.8188" x2="1226.4741" y1="779.4341" y2="774.5612"/><line style="stroke:#181818;stroke-width:1.0;" x1="1234.6461" x2="1228.3014" y1="777.0548" y2="772.182"/><line style="stroke:#181818;stroke-width:1.0;" x1="1232.0829" x2="1227.21" y1="773.8253" y2="780.17"/><line style="stroke:#181818;stroke-width:1.0;" x1="1793.6594" x2="1795.4721" y1="553.7539" y2="543.9195"/><line style="stroke:#181818;stroke-width:1.0;" x1="1793.6594" x2="1803.6079" y1="553.7539" y2="552.7405"/><line style="stroke:#181818;stroke-width:1.0;" x1="1793.6594" x2="1799.54" y1="553.7539" y2="548.33"/><line style="stroke:#181818;stroke-width:1.0;" x1="1789.4773" x2="1794.9012" y1="552.1695" y2="558.0501"/><text fill="#000000" font-family="Yahei" font-size="25" lengthAdjust="spacing" textLength="75" x="1658" y="658.6499">被确认</text></g><!--MD5=[20ce0ab5274c16679059fe5fc0e3ec63]
link 课程 to 公告草稿--><g id="link_课程_公告草稿"><path codeLine="130" d="M1033.34,176.33 C1055.57,206.21 1082.88,240.85 1110,270 C1139.57,301.78 1174.15,334.1 1206.15,362.35 " fill="none" id="课程-公告草稿" style="stroke:#181818;stroke-width:1.0;"/><line style="stroke:#181818;stroke-width:1.0;" x1="1212.156" x2="1206.8749" y1="362.3049" y2="368.314"/><line style="stroke:#181818;stroke-width:1.0;" x1="1209.9026" x2="1204.6215" y1="360.3244" y2="366.3335"/><line style="stroke:#181818;stroke-width:1.0;" x1="1206.5109" x2="1212.52" y1="362.6688" y2="367.95"/><line style="stroke:#181818;stroke-width:1.0;" x1="1033.158" x2="1023.5721" y1="176.0639" y2="173.216"/><line style="stroke:#181818;stroke-width:1.0;" x1="1033.158" x2="1033.2079" y1="176.0639" y2="166.064"/><line style="stroke:#181818;stroke-width:1.0;" x1="1033.158" x2="1028.39" y1="176.0639" y2="169.64"/><line style="stroke:#181818;stroke-width:1.0;" x1="1031.138" x2="1037.5619" y1="180.0539" y2="175.2859"/><text fill="#000000" font-family="Yahei" font-size="25" lengthAdjust="spacing" textLength="100" x="1111" y="263.6499">草稿归属</text></g><!--MD5=[681d800c51aa5702d9cf263fc5b09a1b]
link 教师 to 公告草稿--><g id="link_教师_公告草稿"><path codeLine="131" d="M1500.37,141.55 C1453.5,161.75 1401.8,191.7 1368,234 C1339.55,269.6 1325.01,318.03 1317.59,359.85 " fill="none" id="教师-公告草稿" style="stroke:#181818;stroke-width:1.0;"/><line style="stroke:#181818;stroke-width:1.0;" x1="1320.858" x2="1312.9688" y1="364.5688" y2="363.242"/><line style="stroke:#181818;stroke-width:1.0;" x1="1321.3555" x2="1313.4663" y1="361.6103" y2="360.2836"/><line style="stroke:#181818;stroke-width:1.0;" x1="1317.5768" x2="1316.25" y1="359.9608" y2="367.85"/><line style="stroke:#181818;stroke-width:1.0;" x1="1500.4807" x2="1505.515" y1="141.5034" y2="132.863"/><line style="stroke:#181818;stroke-width:1.0;" x1="1500.4807" x2="1510.185" y1="141.5034" y2="143.917"/><line style="stroke:#181818;stroke-width:1.0;" x1="1500.4807" x2="1507.85" y1="141.5034" y2="138.39"/><line style="stroke:#181818;stroke-width:1.0;" x1="1497.0817" x2="1500.1951" y1="138.5971" y2="145.9664"/><text fill="#000000" font-family="Yahei" font-size="25" lengthAdjust="spacing" textLength="100" x="1369" y="263.6499">创建草稿</text></g><!--MD5=[27d75b979c454b92a0d93d45a6bcd936]
link 教师 to 开课情况--><g id="link_教师_开课情况"><path codeLine="132" d="M1609,212.33 C1609,265.92 1609,329.55 1609,377.26 " fill="none" id="教师-开课情况" style="stroke:#181818;stroke-width:1.0;"/><line style="stroke:#181818;stroke-width:1.0;" x1="1613" x2="1605" y1="381.37" y2="381.37"/><line style="stroke:#181818;stroke-width:1.0;" x1="1613" x2="1605" y1="378.37" y2="378.37"/><line style="stroke:#181818;stroke-width:1.0;" x1="1609" x2="1609" y1="377.37" y2="385.37"/><line style="stroke:#181818;stroke-width:1.0;" x1="1609" x2="1603" y1="212.05" y2="204.05"/><line style="stroke:#181818;stroke-width:1.0;" x1="1609" x2="1615" y1="212.05" y2="204.05"/><line style="stroke:#181818;stroke-width:1.0;" x1="1609" x2="1609" y1="212.05" y2="204.05"/><line style="stroke:#181818;stroke-width:1.0;" x1="1605" x2="1613" y1="214.05" y2="214.05"/><text fill="#000000" font-family="Yahei" font-size="25" lengthAdjust="spacing" textLength="50" x="1610" y="263.6499">开课</text></g><!--MD5=[d29c8c3fcfddf7a3ac0a39f2fdcbed70]
link 课程 to 开课情况--><g id="link_课程_开课情况"><path codeLine="133" d="M1104.91,172.79 C1186.4,217.37 1279.95,268.31 1285,270 C1370.66,298.66 1407.33,255.62 1486,300 C1518.8,318.5 1546.52,349.41 1567.29,378.26 " fill="none" id="课程-开课情况" style="stroke:#181818;stroke-width:1.0;"/><line style="stroke:#181818;stroke-width:1.0;" x1="1573.1178" x2="1566.5848" y1="379.5748" y2="384.1922"/><line style="stroke:#181818;stroke-width:1.0;" x1="1571.3863" x2="1564.8533" y1="377.125" y2="381.7423"/><line style="stroke:#181818;stroke-width:1.0;" x1="1567.5426" x2="1572.16" y1="378.617" y2="385.15"/><line style="stroke:#181818;stroke-width:1.0;" x1="1104.5921" x2="1094.6954" y1="172.6128" y2="174.0466"/><line style="stroke:#181818;stroke-width:1.0;" x1="1104.5921" x2="1100.4446" y1="172.6128" y2="163.5134"/><line style="stroke:#181818;stroke-width:1.0;" x1="1104.5921" x2="1097.57" y1="172.6128" y2="168.78"/><line style="stroke:#181818;stroke-width:1.0;" x1="1104.4312" x2="1108.264" y1="177.0821" y2="170.06"/><text fill="#000000" font-family="Yahei" font-size="25" lengthAdjust="spacing" textLength="50" x="1286" y="263.6499">开设</text></g><!--MD5=[1b1381b647c64dbe775eecdcee8a0690]
link 课程 to 问题--><g id="link_课程_问题"><path codeLine="134" d="M984,177.97 C984,211.04 984,251.72 984,291.4 " fill="none" id="课程-问题" style="stroke:#181818;stroke-width:1.0;"/><line style="stroke:#181818;stroke-width:1.0;" x1="988" x2="980" y1="295.85" y2="295.85"/><line style="stroke:#181818;stroke-width:1.0;" x1="988" x2="980" y1="292.85" y2="292.85"/><line style="stroke:#181818;stroke-width:1.0;" x1="984" x2="984" y1="291.85" y2="299.85"/><line style="stroke:#181818;stroke-width:1.0;" x1="984" x2="978" y1="177.63" y2="169.63"/><line style="stroke:#181818;stroke-width:1.0;" x1="984" x2="990" y1="177.63" y2="169.63"/><line style="stroke:#181818;stroke-width:1.0;" x1="984" x2="984" y1="177.63" y2="169.63"/><line style="stroke:#181818;stroke-width:1.0;" x1="980" x2="988" y1="179.63" y2="179.63"/><text fill="#000000" font-family="Yahei" font-size="25" lengthAdjust="spacing" textLength="50" x="985" y="263.6499">包含</text></g><!--MD5=[3bd841fe191974fcd775289c49db0b1a]
link 学生 to 问题点赞记录--><g id="link_学生_问题点赞记录"><path codeLine="135" d="M779.05,572.68 C813.53,638.48 854.85,717.31 884,772.91 " fill="none" id="学生-问题点赞记录" style="stroke:#181818;stroke-width:1.0;"/><line style="stroke:#181818;stroke-width:1.0;" x1="889.5357" x2="882.4501" y1="774.8501" y2="778.5643"/><line style="stroke:#181818;stroke-width:1.0;" x1="888.1428" x2="881.0573" y1="772.1931" y2="775.9073"/><line style="stroke:#181818;stroke-width:1.0;" x1="884.1358" x2="887.85" y1="773.1645" y2="780.25"/><line style="stroke:#181818;stroke-width:1.0;" x1="778.8542" x2="769.8258" y1="572.3155" y2="568.0156"/><line style="stroke:#181818;stroke-width:1.0;" x1="778.8542" x2="780.4542" y1="572.3155" y2="562.4444"/><line style="stroke:#181818;stroke-width:1.0;" x1="778.8542" x2="775.14" y1="572.3155" y2="565.23"/><line style="stroke:#181818;stroke-width:1.0;" x1="776.24" x2="783.3255" y1="575.944" y2="572.2298"/><text fill="#000000" font-family="Yahei" font-size="25" lengthAdjust="spacing" textLength="50" x="825" y="658.6499">点赞</text></g><!--MD5=[8794892d3dcf985c96fc2970391dba99]
link 问题 to 问题点赞记录--><g id="link_问题_问题点赞记录"><path codeLine="136" d="M958.88,607.2 C949.73,664.3 939.82,726.09 932.44,772.16 " fill="none" id="问题-问题点赞记录" style="stroke:#181818;stroke-width:1.0;"/><line style="stroke:#181818;stroke-width:1.0;" x1="935.7157" x2="927.8177" y1="776.9677" y2="775.6943"/><line style="stroke:#181818;stroke-width:1.0;" x1="936.1932" x2="928.2952" y1="774.006" y2="772.7325"/><line style="stroke:#181818;stroke-width:1.0;" x1="932.4034" x2="931.13" y1="772.382" y2="780.28"/><line style="stroke:#181818;stroke-width:1.0;" x1="958.9088" x2="954.2562" y1="606.9784" y2="598.1266"/><line style="stroke:#181818;stroke-width:1.0;" x1="958.9088" x2="966.1038" y1="606.9784" y2="600.0334"/><line style="stroke:#181818;stroke-width:1.0;" x1="958.9088" x2="960.18" y1="606.9784" y2="599.08"/><line style="stroke:#181818;stroke-width:1.0;" x1="954.6419" x2="962.5402" y1="608.3174" y2="609.5885"/><text fill="#000000" font-family="Yahei" font-size="25" lengthAdjust="spacing" textLength="75" x="955" y="658.6499">被点赞</text></g><!--MD5=[749049b962fbab75c32a59ddc813c7b5]
link 问题 to 回答--><g id="link_问题_回答"><path codeLine="137" d="M1123.62,590.37 C1127.41,593.33 1131.2,596.21 1135,599 C1208.07,652.67 1241.93,641.33 1315,695 C1318.8,697.79 1322.59,700.67 1326.38,703.63 " fill="none" id="问题-回答" style="stroke:#181818;stroke-width:1.0;"/><line style="stroke:#181818;stroke-width:1.0;" x1="1332.0865" x2="1327.1099" y1="703.0599" y2="709.3235"/><line style="stroke:#181818;stroke-width:1.0;" x1="1329.7376" x2="1324.761" y1="701.1936" y2="707.4573"/><line style="stroke:#181818;stroke-width:1.0;" x1="1326.4663" x2="1332.73" y1="703.7034" y2="708.68"/><line style="stroke:#181818;stroke-width:1.0;" x1="1123.5337" x2="1113.5375" y1="590.2966" y2="590.0177"/><line style="stroke:#181818;stroke-width:1.0;" x1="1123.5337" x2="1121.0025" y1="590.2966" y2="580.6223"/><line style="stroke:#181818;stroke-width:1.0;" x1="1123.5337" x2="1117.27" y1="590.2966" y2="585.32"/><line style="stroke:#181818;stroke-width:1.0;" x1="1122.6113" x2="1127.5879" y1="594.6726" y2="588.4089"/><text fill="#000000" font-family="Yahei" font-size="25" lengthAdjust="spacing" textLength="100" x="1265" y="658.6499">得到回答</text></g><!--MD5=[6f24b52b27c49a2c7fddebe15909f6a9]
link 学生 to 回答点赞记录--><g id="link_学生_回答点赞记录"><path codeLine="138" d="M693.65,573.17 C679.52,687.32 673.15,859.55 733,994 C764.99,1065.88 828.9,1127.22 884.6,1170.48 " fill="none" id="学生-回答点赞记录" style="stroke:#181818;stroke-width:1.0;"/><line style="stroke:#181818;stroke-width:1.0;" x1="890.2741" x2="885.4012" y1="1169.7912" y2="1176.1359"/><line style="stroke:#181818;stroke-width:1.0;" x1="887.8948" x2="883.022" y1="1167.9639" y2="1174.3086"/><line style="stroke:#181818;stroke-width:1.0;" x1="884.6653" x2="891.01" y1="1170.5271" y2="1175.4"/><line style="stroke:#181818;stroke-width:1.0;" x1="693.6666" x2="688.7283" y1="572.9856" y2="564.29"/><line style="stroke:#181818;stroke-width:1.0;" x1="693.6666" x2="700.6317" y1="572.9856" y2="565.81"/><line style="stroke:#181818;stroke-width:1.0;" x1="693.6666" x2="694.68" y1="572.9856" y2="565.05"/><line style="stroke:#181818;stroke-width:1.0;" x1="689.4455" x2="697.3811" y1="574.4628" y2="575.4761"/><text fill="#000000" font-family="Yahei" font-size="25" lengthAdjust="spacing" textLength="50" x="734" y="856.1499">点赞</text></g><!--MD5=[b90b6e62798f542a01193d083b0c9b46]
link 回答 to 回答点赞记录--><g id="link_回答_回答点赞记录"><path codeLine="139" d="M1326.6,983.9 C1322.72,987.33 1318.85,990.7 1315,994 C1240.98,1057.47 1152.02,1123.18 1085.43,1170.48 " fill="none" id="回答-回答点赞记录" style="stroke:#181818;stroke-width:1.0;"/><line style="stroke:#181818;stroke-width:1.0;" x1="1084.2266" x2="1079.5997" y1="1176.2297" y2="1169.7034"/><line style="stroke:#181818;stroke-width:1.0;" x1="1086.6739" x2="1082.047" y1="1174.4946" y2="1167.9683"/><line style="stroke:#181818;stroke-width:1.0;" x1="1085.1762" x2="1078.65" y1="1170.6531" y2="1175.28"/><line style="stroke:#181818;stroke-width:1.0;" x1="1326.731" x2="1328.7052" y1="983.7864" y2="973.9832"/><line style="stroke:#181818;stroke-width:1.0;" x1="1326.731" x2="1336.6948" y1="983.7864" y2="982.9368"/><line style="stroke:#181818;stroke-width:1.0;" x1="1326.731" x2="1332.7" y1="983.7864" y2="978.46"/><line style="stroke:#181818;stroke-width:1.0;" x1="1322.5755" x2="1327.9019" y1="982.1335" y2="988.1025"/><text fill="#000000" font-family="Yahei" font-size="25" lengthAdjust="spacing" textLength="75" x="1273" y="1053.6499">被点赞</text></g><!--MD5=[556027e0aadf764e64d01fcb19afd273]
link 回答 to 二级回答--><g id="link_回答_二级回答"><path codeLine="140" d="M1426.93,1002.18 C1420.41,1028.34 1413.64,1055.47 1407.12,1081.63 " fill="none" id="回答-二级回答" style="stroke:#181818;stroke-width:1.0;"/><line style="stroke:#181818;stroke-width:1.0;" x1="1409.952" x2="1402.1917" y1="1086.8017" y2="1084.858"/><line style="stroke:#181818;stroke-width:1.0;" x1="1410.6808" x2="1402.9205" y1="1083.8916" y2="1081.9479"/><line style="stroke:#181818;stroke-width:1.0;" x1="1407.0436" x2="1405.1" y1="1081.9497" y2="1089.71"/><line style="stroke:#181818;stroke-width:1.0;" x1="1427.0064" x2="1423.1298" y1="1001.8403" y2="992.6223"/><line style="stroke:#181818;stroke-width:1.0;" x1="1427.0064" x2="1434.7702" y1="1001.8403" y2="995.5377"/><line style="stroke:#181818;stroke-width:1.0;" x1="1427.0064" x2="1428.95" y1="1001.8403" y2="994.08"/><line style="stroke:#181818;stroke-width:1.0;" x1="1422.6403" x2="1430.4006" y1="1002.8085" y2="1004.7522"/><text fill="#000000" font-family="Yahei" font-size="25" lengthAdjust="spacing" textLength="100" x="1420" y="1053.6499">得到回答</text></g><!--MD5=[1e1f21e9189673e15b98f05b65858d26]
link 学生 to 二级回答点赞记录--><g id="link_学生_二级回答点赞记录"><path codeLine="141" d="M685.75,573.15 C682.22,591.77 679.12,610.83 677,629 C640.3,943.18 647.84,1321.74 653.12,1476.67 " fill="none" id="学生-二级回答点赞记录" style="stroke:#181818;stroke-width:1.0;"/><line style="stroke:#181818;stroke-width:1.0;" x1="657.2547" x2="649.2598" y1="1480.6298" y2="1480.9153"/><line style="stroke:#181818;stroke-width:1.0;" x1="657.1476" x2="649.1527" y1="1477.6317" y2="1477.9172"/><line style="stroke:#181818;stroke-width:1.0;" x1="653.1145" x2="653.4" y1="1476.7751" y2="1484.77"/><line style="stroke:#181818;stroke-width:1.0;" x1="685.7523" x2="681.3904" y1="573.0528" y2="564.0542"/><line style="stroke:#181818;stroke-width:1.0;" x1="685.7523" x2="693.1696" y1="573.0528" y2="566.3458"/><line style="stroke:#181818;stroke-width:1.0;" x1="685.7523" x2="687.28" y1="573.0528" y2="565.2"/><line style="stroke:#181818;stroke-width:1.0;" x1="681.444" x2="689.2967" y1="574.2521" y2="575.7798"/><text fill="#000000" font-family="Yahei" font-size="25" lengthAdjust="spacing" textLength="50" x="652" y="1053.6499">点赞</text></g><!--MD5=[955540fc4041d9bd83a917ebc451d368]
link 二级回答 to 二级回答点赞记录--><g id="link_二级回答_二级回答点赞记录"><path codeLine="142" d="M1224.46,1331.74 C1189.67,1351.97 1152.09,1372.33 1116,1389 C1006.88,1439.4 876.99,1482.88 783.12,1511.57 " fill="none" id="二级回答-二级回答点赞记录" style="stroke:#181818;stroke-width:1.0;"/><line style="stroke:#181818;stroke-width:1.0;" x1="780.2721" x2="777.9406" y1="1516.6206" y2="1508.9679"/><line style="stroke:#181818;stroke-width:1.0;" x1="783.1419" x2="780.8103" y1="1515.7462" y2="1508.0935"/><line style="stroke:#181818;stroke-width:1.0;" x1="782.9327" x2="775.28" y1="1511.6284" y2="1513.96"/><line style="stroke:#181818;stroke-width:1.0;" x1="1224.4677" x2="1228.3594" y1="1331.7174" y2="1322.5058"/><line style="stroke:#181818;stroke-width:1.0;" x1="1224.4677" x2="1234.4006" y1="1331.7174" y2="1332.8742"/><line style="stroke:#181818;stroke-width:1.0;" x1="1224.4677" x2="1231.38" y1="1331.7174" y2="1327.69"/><line style="stroke:#181818;stroke-width:1.0;" x1="1220.7259" x2="1224.7533" y1="1329.2681" y2="1336.1804"/><text fill="#000000" font-family="Yahei" font-size="25" lengthAdjust="spacing" textLength="75" x="1043" y="1448.6499">被点赞</text></g><!--MD5=[7f1ad7c7c4c988e8b1ca1ddc418650d9]
link 课程 to 课程时间--><g id="link_课程_课程时间"><path codeLine="143" d="M862.53,152.76 C782.56,186.58 678.06,237.39 597,300 C579.97,313.15 563.48,328.78 548.28,344.89 " fill="none" id="课程-课程时间" style="stroke:#181818;stroke-width:1.0;"/><line style="stroke:#181818;stroke-width:1.0;" x1="548.3933" x2="542.5401" y1="350.6401" y2="345.1867"/><line style="stroke:#181818;stroke-width:1.0;" x1="550.4384" x2="544.5852" y1="348.4452" y2="342.9917"/><line style="stroke:#181818;stroke-width:1.0;" x1="548.1935" x2="542.74" y1="344.9868" y2="350.84"/><line style="stroke:#181818;stroke-width:1.0;" x1="862.8134" x2="867.8679" y1="152.6362" y2="144.0076"/><line style="stroke:#181818;stroke-width:1.0;" x1="862.8134" x2="872.5121" y1="152.6362" y2="155.0724"/><line style="stroke:#181818;stroke-width:1.0;" x1="862.8134" x2="870.19" y1="152.6362" y2="149.54"/><line style="stroke:#181818;stroke-width:1.0;" x1="859.4212" x2="862.5174" y1="149.7219" y2="157.0985"/><text fill="#000000" font-family="Yahei" font-size="25" lengthAdjust="spacing" textLength="125" x="696" y="263.6499">有上课时间</text></g><!--MD5=[f50d289e2a4400dae3335aea5b7186fc]
@startuml

skinparam defaultTextAlignment center
skinparam defaultFontName Yahei
skinparam defaultFontSize 25
entity 学生 {
  * 学号: char(12)
  - - -
  姓名: varchar(50)
  班级: varchar(10)
  专业: varchar(40)
  密码: varchar(30)
}

entity 教师 {
  * 工号: char(12)
  - - -
  姓名: varchar(50)
  邮箱: varchar(30)
  密码: varchar(30)
}

entity 课程 {
  * 课程号: char(12)
  - - -
  课程名: varchar(50)
}

entity 公告 {
  * 公告号: bigint(20)
  - - -
  工号: char(12)
  课程号: char(12)
  公告内容: varchar(600)
}

entity 问题 {
  * 问题号: bigint(20)
  - - -
  课程号: char(12)
  问题内容: varchar(600)
  问题时间: timestamp
  用户ID: char(12)
  点赞数: smallint(6)
  教师点赞: tinyint(1)
}

entity 回答 {
  * 回答号: bigint(20)
  - - -
  问题号: bigint(20)
  回答内容: varchar(600)
  回答时间: timestamp
  用户ID: char(12)
  点赞数: smallint(6)
  教师点赞: tinyint(1)
}

entity 二级回答 {
  * 二级回答号: bigint(20)
  - - -
  回答号: bigint(20)
  回答内容: varchar(600)
  回答时间: timestamp
  用户ID: char(12)
  点赞数: smallint(6)
  教师点赞: tinyint(1)
}

entity 评价 {
  * 评价号: bigint(20)
  - - -
  课程号: char(12)
  学号: char(12)
  评价内容: varchar(600)
  评价课次: smallint(6)
}

entity 课程时间 {
  * 记录号: bigint(11)
  - - -
  课程号: char(12)
  周几: smallint(6)
  节次: smallint(6)
}

entity SC {
  * 学号: char(12)
  * 课程号: char(12)
}

entity 公告确认 {
  * 学号: char(12)
  * 公告号: bigint(20)
}

entity 公告草稿 {
  * 课程号: char(12)
  * 工号: char(12)
  - - -
  公告草稿内容: varchar(255)
}

entity 开课情况 {
  * 工号: char(12)
  * 课程号: char(12)
}

entity 回答点赞记录 {
  * 学号: char(12)
  * 回答号: bigint(20)
}

entity 二级回答点赞记录 {
  * 学号: char(12)
  * 回答号: bigint(20)
}

entity 问题点赞记录 {
  * 学号: char(12)
  * 问题号: bigint(255)
}
学生 }|- -|| SC : "选课"
课程 }|- -|| SC : "被选"
学生 }|- -|| 评价 : "发表"
课程 }|- -|| 评价 : "被评价"
课程 }|- -|| 公告 : "包含"
教师 }|- -|| 公告 : "发布"
学生 }|- -|| 公告确认 : "确认"
公告 }|- -|| 公告确认 : "被确认"
课程 }|- -|| 公告草稿 : "草稿归属"
教师 }|- -|| 公告草稿 : "创建草稿"
教师 }|- -|| 开课情况 : "开课"
课程 }|- -|| 开课情况 : "开设"
课程 }|- -|| 问题 : "包含"
学生 }|- -|| 问题点赞记录 : "点赞"
问题 }|- -|| 问题点赞记录 : "被点赞"
问题 }|- -|| 回答 : "得到回答"
学生 }|- -|| 回答点赞记录 : "点赞"
回答 }|- -|| 回答点赞记录 : "被点赞"
回答 }|- -|| 二级回答 : "得到回答"
学生 }|- -|| 二级回答点赞记录 : "点赞"
二级回答 }|- -|| 二级回答点赞记录 : "被点赞"
课程 }|- -|| 课程时间 : "有上课时间"
@enduml

PlantUML version 1.2022.7(Tue Aug 23 01:01:30 CST 2022)
(GPL source distribution)
Java Runtime: Java(TM) SE Runtime Environment
JVM: Java HotSpot(TM) 64-Bit Server VM
Default Encoding: GBK
Language: zh
Country: CN
--></g></svg>